<mxfile host="65bd71144e">
    <diagram id="sBHpFClVU1uYfl2U50hn" name="第 1 页">
        <mxGraphModel dx="876" dy="614" grid="1" gridSize="10" guides="1" tooltips="1" connect="1" arrows="1" fold="1" page="1" pageScale="1" pageWidth="2339" pageHeight="3300" math="1" shadow="0">
            <root>
                <mxCell id="0"/>
                <mxCell id="1" parent="0"/>
                <mxCell id="45" style="edgeStyle=none;html=1;exitX=0.25;exitY=1;exitDx=0;exitDy=0;entryX=1;entryY=0;entryDx=0;entryDy=0;" edge="1" parent="1" source="32" target="55">
                    <mxGeometry relative="1" as="geometry">
                        <mxPoint x="220" y="258" as="targetPoint"/>
                    </mxGeometry>
                </mxCell>
                <mxCell id="46" style="edgeStyle=none;html=1;exitX=0.75;exitY=1;exitDx=0;exitDy=0;entryX=0;entryY=0;entryDx=0;entryDy=0;" edge="1" parent="1" source="32" target="56">
                    <mxGeometry relative="1" as="geometry">
                        <mxPoint x="355" y="258" as="targetPoint"/>
                    </mxGeometry>
                </mxCell>
                <mxCell id="32" value="&lt;span style=&quot;font-family: &amp;quot;Times New Roman&amp;quot;; font-size: 18px;&quot;&gt;$$\text{All stocks}$$&lt;/span&gt;" style="rounded=0;whiteSpace=wrap;html=1;fillColor=#CF684E;" vertex="1" parent="1">
                    <mxGeometry x="250" y="200" width="78" height="30" as="geometry"/>
                </mxCell>
                <mxCell id="34" value="&lt;span style=&quot;font-family: &amp;quot;Times New Roman&amp;quot;; font-size: 18px;&quot;&gt;$$\text{Small size}$$&lt;/span&gt;" style="rounded=0;whiteSpace=wrap;html=1;fillColor=#FFA28F;" vertex="1" parent="1">
                    <mxGeometry x="130" y="330" width="80" height="20" as="geometry"/>
                </mxCell>
                <mxCell id="35" value="&lt;span style=&quot;font-family: &amp;quot;Times New Roman&amp;quot;; font-size: 18px;&quot;&gt;$$\text{Big}$$&lt;/span&gt;" style="rounded=0;whiteSpace=wrap;html=1;fillColor=#FFA28F;" vertex="1" parent="1">
                    <mxGeometry x="232.5" y="330" width="45" height="20" as="geometry"/>
                </mxCell>
                <mxCell id="47" style="edgeStyle=none;html=1;exitX=0;exitY=1;exitDx=0;exitDy=0;entryX=0.5;entryY=0;entryDx=0;entryDy=0;" edge="1" parent="1" source="55" target="34">
                    <mxGeometry relative="1" as="geometry">
                        <mxPoint x="200" y="284" as="sourcePoint"/>
                    </mxGeometry>
                </mxCell>
                <mxCell id="50" style="edgeStyle=none;html=1;exitX=1;exitY=1;exitDx=0;exitDy=0;entryX=0.5;entryY=0;entryDx=0;entryDy=0;" edge="1" parent="1" source="55" target="35">
                    <mxGeometry relative="1" as="geometry">
                        <mxPoint x="240" y="284" as="sourcePoint"/>
                    </mxGeometry>
                </mxCell>
                <mxCell id="51" style="edgeStyle=none;html=1;exitX=0;exitY=1;exitDx=0;exitDy=0;entryX=0.5;entryY=0;entryDx=0;entryDy=0;" edge="1" parent="1" source="56" target="40">
                    <mxGeometry relative="1" as="geometry">
                        <mxPoint x="335" y="284" as="sourcePoint"/>
                    </mxGeometry>
                </mxCell>
                <mxCell id="52" style="edgeStyle=none;html=1;exitX=1;exitY=1;exitDx=0;exitDy=0;entryX=0.5;entryY=0;entryDx=0;entryDy=0;" edge="1" parent="1" source="56" target="41">
                    <mxGeometry relative="1" as="geometry">
                        <mxPoint x="375" y="284" as="sourcePoint"/>
                    </mxGeometry>
                </mxCell>
                <mxCell id="40" value="&lt;span style=&quot;font-family: &amp;quot;Times New Roman&amp;quot;; font-size: 18px;&quot;&gt;$$\text{Small}$$&lt;/span&gt;" style="rounded=0;whiteSpace=wrap;html=1;fillColor=#FFA561;" vertex="1" parent="1">
                    <mxGeometry x="305" y="330" width="50" height="20" as="geometry"/>
                </mxCell>
                <mxCell id="41" value="&lt;span style=&quot;font-family: &amp;quot;Times New Roman&amp;quot;; font-size: 18px;&quot;&gt;$$\text{Big}$$&lt;/span&gt;" style="rounded=0;whiteSpace=wrap;html=1;fillColor=#FFA561;" vertex="1" parent="1">
                    <mxGeometry x="370" y="330" width="50" height="20" as="geometry"/>
                </mxCell>
                <mxCell id="55" value="&lt;font face=&quot;Times New Roman&quot;&gt;&lt;span style=&quot;font-size: 18px;&quot;&gt;$$\beta_1$$&lt;/span&gt;&lt;/font&gt;" style="ellipse;whiteSpace=wrap;html=1;aspect=fixed;movable=1;resizable=1;rotatable=1;deletable=1;editable=1;connectable=1;strokeColor=#000000;fillColor=#FFA28F;" vertex="1" parent="1">
                    <mxGeometry x="210" y="260" width="30" height="30" as="geometry"/>
                </mxCell>
                <mxCell id="56" value="&lt;font face=&quot;Times New Roman&quot;&gt;&lt;span style=&quot;font-size: 18px;&quot;&gt;$$\beta_2$$&lt;/span&gt;&lt;/font&gt;" style="ellipse;whiteSpace=wrap;html=1;aspect=fixed;movable=1;resizable=1;rotatable=1;deletable=1;editable=1;connectable=1;strokeColor=#000000;fillColor=#FFA561;" vertex="1" parent="1">
                    <mxGeometry x="340" y="260" width="30" height="30" as="geometry"/>
                </mxCell>
            </root>
        </mxGraphModel>
    </diagram>
</mxfile>